<?xml version="1.0" encoding="UTF-8"?>
<svg xmlns="http://www.w3.org/2000/svg" viewBox="0 0 140 196" width="140" height="196">
  
    <defs>
      <clipPath id="artZone">
        <rect x="14" y="52" width="112" height="132" rx="8"/>
      </clipPath>
      <linearGradient id="cardBg" x1="0%" y1="0%" x2="100%" y2="100%">
        <stop offset="0%" stop-color="#ffffff"/>
        <stop offset="100%" stop-color="#fff1f2"/>
      </linearGradient>
      <linearGradient id="frameGrad" x1="0%" y1="0%" x2="100%" y2="100%">
        <stop offset="0%" stop-color="#fda4af"/>
        <stop offset="100%" stop-color="#e11d48"/>
      </linearGradient>
      <filter id="softShadow" x="-20%" y="-20%" width="140%" height="140%">
        <feDropShadow dx="0" dy="2" stdDeviation="2.5" flood-opacity="0.18"/>
      </filter>
    </defs>
    <rect x="2" y="2" width="136" height="192" rx="12" fill="url(#frameGrad)" filter="url(#softShadow)"/>
    <rect x="6" y="6" width="128" height="184" rx="10" fill="url(#cardBg)" stroke="#e11d48" stroke-width="2"/>
    <rect x="14" y="52" width="112" height="132" rx="8" fill="#fff1f2" opacity="0.35" stroke="#fda4af" stroke-width="1" stroke-dasharray="4 3"/>
  
  
    <g clip-path="url(#artZone)">
      
    <ellipse cx="70" cy="160" rx="14" ry="10" fill="#f72585" stroke="#3d2314" stroke-width="2.4" stroke-linejoin="round" stroke-linecap="round"/>
    <ellipse cx="70" cy="154" rx="18" ry="14" fill="#f72585" stroke="#3d2314" stroke-width="2.4" stroke-linejoin="round" stroke-linecap="round"/>
    <ellipse cx="70" cy="150" rx="14" ry="6" fill="#fff" opacity="0.2" stroke="#3d2314" stroke-width="2.4" stroke-linejoin="round" stroke-linecap="round"/>
  
      <ellipse cx="50" cy="148" rx="6" ry="4.5" fill="#f72585" stroke="#3d2314" stroke-width="2.4" stroke-linejoin="round" stroke-linecap="round"/>
      <ellipse cx="90" cy="148" rx="6" ry="4.5" fill="#f72585" stroke="#3d2314" stroke-width="2.4" stroke-linejoin="round" stroke-linecap="round"/>
    
      <ellipse cx="70" cy="120" rx="30" ry="28" fill="#f5c99a" stroke="#3d2314" stroke-width="2.4" stroke-linejoin="round" stroke-linecap="round"/>
      
      <ellipse cx="70" cy="94" rx="32" ry="26" fill="#ffd166" stroke="#3d2314" stroke-width="2.4" stroke-linejoin="round" stroke-linecap="round"/>
      <path d="M 40 104 Q 56 120 70 98 Q 84 120 100 104 L 98 80 L 42 80 Z" fill="#ffd166" stroke="#3d2314" stroke-width="2.4" stroke-linejoin="round" stroke-linecap="round"/>
    
      <path d="M 70 60 C 60 48 60 64 70 68 C 80 64 80 48 70 60 Z" fill="#fb7185" stroke="#3d2314" stroke-width="2.4" stroke-linejoin="round" stroke-linecap="round"/>
      
        <ellipse cx="50" cy="128" rx="7" ry="4" fill="#ffb4b4" opacity="0.65" stroke="#3d2314" stroke-width="2.4" stroke-linejoin="round" stroke-linecap="round"/>
        <ellipse cx="90" cy="128" rx="7" ry="4" fill="#ffb4b4" opacity="0.65" stroke="#3d2314" stroke-width="2.4" stroke-linejoin="round" stroke-linecap="round"/>
      
      
      <ellipse cx="58" cy="114" rx="9" ry="11" fill="#fff" stroke="#3d2314" stroke-width="2.4" stroke-linejoin="round" stroke-linecap="round"/>
      <ellipse cx="58" cy="115" rx="6" ry="8" fill="#1a1a2e" stroke="#3d2314" stroke-width="2.4" stroke-linejoin="round" stroke-linecap="round"/>
      <circle cx="60" cy="111" r="3" fill="#fff" stroke="#3d2314" stroke-width="2.4" stroke-linejoin="round" stroke-linecap="round"/>
      <circle cx="62" cy="117" r="1.2" fill="#fff" stroke="#3d2314" stroke-width="2.4" stroke-linejoin="round" stroke-linecap="round"/>
      <path d="M 72 114 Q 82 110 90 114" fill="none" stroke="#3d2314" stroke-width="2.5" stroke-linecap="round" stroke="#3d2314" stroke-width="2.4" stroke-linejoin="round" stroke-linecap="round"/>
    
      <ellipse cx="70" cy="132" rx="3" ry="2" fill="#ffb4b4" opacity="0.5" stroke="#3d2314" stroke-width="2.4" stroke-linejoin="round" stroke-linecap="round"/>
      <path d="M 64 136 Q 70 142 76 136" fill="none" stroke="#3d2314" stroke-width="2.2" stroke-linecap="round"/>
    </g>
  
</svg>