<?xml version="1.0" encoding="UTF-8"?>
<svg xmlns="http://www.w3.org/2000/svg" viewBox="0 0 140 196" width="140" height="196">
  
    <defs>
      <linearGradient id="cardBg" x1="0%" y1="0%" x2="100%" y2="100%">
        <stop offset="0%" stop-color="#fffef9"/>
        <stop offset="100%" stop-color="#f8f4ea"/>
      </linearGradient>
      <linearGradient id="frameGrad" x1="0%" y1="0%" x2="100%" y2="100%">
        <stop offset="0%" stop-color="#4ade80"/>
        <stop offset="100%" stop-color="#166534"/>
      </linearGradient>
      <filter id="softShadow" x="-20%" y="-20%" width="140%" height="140%">
        <feDropShadow dx="0" dy="2" stdDeviation="2" flood-opacity="0.15"/>
      </filter>
    </defs>
    <rect x="2" y="2" width="136" height="192" rx="12" fill="url(#frameGrad)" filter="url(#softShadow)"/>
    <rect x="6" y="6" width="128" height="184" rx="10" fill="url(#cardBg)" stroke="#166534" stroke-width="1.5" opacity="0.95"/>
    <rect x="10" y="10" width="120" height="176" rx="8" fill="none" stroke="#4ade80" stroke-width="0.8" opacity="0.4"/>

    <text x="18" y="30" font-family="Georgia, serif" font-size="20" font-weight="700" fill="#1e293b">5</text>
    <text x="18" y="48" font-family="Georgia, serif" font-size="16" fill="#1e293b">♣</text>

    <text x="122" y="182" font-family="Georgia, serif" font-size="20" font-weight="700" fill="#1e293b" text-anchor="end" transform="rotate(180 122 182)">5</text>
    <text x="122" y="164" font-family="Georgia, serif" font-size="16" fill="#1e293b" text-anchor="end" transform="rotate(180 122 164)">♣</text>
  
  
    <g>
      <circle cx="65" cy="156" r="5" fill="#166534" opacity="0.35"/><circle cx="75" cy="156" r="5" fill="#166534" opacity="0.35"/><circle cx="70" cy="150" r="5" fill="#166534" opacity="0.35"/>
      
    <ellipse cx="70" cy="146" rx="22" ry="18" fill="#6366f1"/>
    <ellipse cx="70" cy="142" rx="18" ry="8" fill="rgba(255,255,255,0.15)"/>
  
      <ellipse cx="42" cy="138" rx="7" ry="5" fill="#6366f1" transform="rotate(-35 42 138)"/>
      <ellipse cx="96" cy="130" rx="7" ry="5" fill="#6366f1" transform="rotate(55 96 130)"/>
      <circle cx="102" cy="122" r="6" fill="#fde68a"/>
    
      <ellipse cx="70" cy="112" rx="26" ry="24" fill="#fbbf24"/>
      <ellipse cx="70" cy="90" rx="30" ry="26" fill="#f59e0b"/><path d="M 42 102 Q 34 138 48 150 L 56 128 L 84 128 L 92 150 Q 106 138 98 102 Z" fill="#f59e0b"/>
      
      
    <ellipse cx="52" cy="116" rx="5" ry="3" fill="#fca5a5" opacity="0.55"/>
    <ellipse cx="88" cy="116" rx="5" ry="3" fill="#fca5a5" opacity="0.55"/>
  
      
    <ellipse cx="60" cy="106" rx="5.5" ry="7" fill="#1e293b"/>
    <ellipse cx="80" cy="106" rx="5.5" ry="7" fill="#1e293b"/>
    <circle cx="62" cy="104" r="2.2" fill="#fff"/>
    <circle cx="82" cy="104" r="2.2" fill="#fff"/>
    <circle cx="64" cy="107" r="1" fill="#fff" opacity="0.6"/>
    <circle cx="84" cy="107" r="1" fill="#fff" opacity="0.6"/>
  
      <ellipse cx="70" cy="124" rx="4" ry="3" fill="#be123c"/>
    </g>
  
</svg>