<?xml version="1.0" encoding="UTF-8"?>
<svg xmlns="http://www.w3.org/2000/svg" viewBox="0 0 140 196" width="140" height="196">
  
    <defs>
      <linearGradient id="cardBg" x1="0%" y1="0%" x2="100%" y2="100%">
        <stop offset="0%" stop-color="#fffef9"/>
        <stop offset="100%" stop-color="#f8f4ea"/>
      </linearGradient>
      <linearGradient id="frameGrad" x1="0%" y1="0%" x2="100%" y2="100%">
        <stop offset="0%" stop-color="#f87171"/>
        <stop offset="100%" stop-color="#dc2626"/>
      </linearGradient>
      <filter id="softShadow" x="-20%" y="-20%" width="140%" height="140%">
        <feDropShadow dx="0" dy="2" stdDeviation="2" flood-opacity="0.15"/>
      </filter>
    </defs>
    <rect x="2" y="2" width="136" height="192" rx="12" fill="url(#frameGrad)" filter="url(#softShadow)"/>
    <rect x="6" y="6" width="128" height="184" rx="10" fill="url(#cardBg)" stroke="#dc2626" stroke-width="1.5" opacity="0.95"/>
    <rect x="10" y="10" width="120" height="176" rx="8" fill="none" stroke="#f87171" stroke-width="0.8" opacity="0.4"/>

    <text x="18" y="30" font-family="Georgia, serif" font-size="20" font-weight="700" fill="#dc2626">6</text>
    <text x="18" y="48" font-family="Georgia, serif" font-size="16" fill="#dc2626">♥</text>

    <text x="122" y="182" font-family="Georgia, serif" font-size="20" font-weight="700" fill="#dc2626" text-anchor="end" transform="rotate(180 122 182)">6</text>
    <text x="122" y="164" font-family="Georgia, serif" font-size="16" fill="#dc2626" text-anchor="end" transform="rotate(180 122 164)">♥</text>
  
  
    <g>
      <path d="M 70 158 C 60 146 60 160 70 166 C 80 160 80 146 70 158 Z" fill="#dc2626" opacity="0.35"/>
      
    <ellipse cx="70" cy="146" rx="22" ry="18" fill="#ef4444"/>
    <ellipse cx="70" cy="142" rx="18" ry="8" fill="rgba(255,255,255,0.15)"/>
  
      <ellipse cx="48" cy="144" rx="7" ry="5" fill="#ef4444" transform="rotate(10 48 144)"/>
      <ellipse cx="92" cy="144" rx="7" ry="5" fill="#ef4444" transform="rotate(-10 92 144)"/>
    
      <ellipse cx="70" cy="112" rx="26" ry="24" fill="#fde047"/>
      <ellipse cx="70" cy="90" rx="30" ry="26" fill="#2d1b0e"/><path d="M 42 98 L 50 70 L 62 94 L 70 66 L 78 94 L 90 70 L 98 98 Z" fill="#2d1b0e"/>
      
      
    <ellipse cx="52" cy="116" rx="5" ry="3" fill="#fca5a5" opacity="0.55"/>
    <ellipse cx="88" cy="116" rx="5" ry="3" fill="#fca5a5" opacity="0.55"/>
  
      
    <ellipse cx="60" cy="106" rx="5.5" ry="7" fill="#1e293b"/>
    <ellipse cx="80" cy="106" rx="5.5" ry="7" fill="#1e293b"/>
    <circle cx="62" cy="104" r="2.2" fill="#fff"/>
    <circle cx="82" cy="104" r="2.2" fill="#fff"/>
    <circle cx="64" cy="107" r="1" fill="#fff" opacity="0.6"/>
    <circle cx="84" cy="107" r="1" fill="#fff" opacity="0.6"/>
  
      <path d="M 65 122 Q 70 127 75 122" stroke="#be123c" stroke-width="1.8" fill="none" stroke-linecap="round"/>
    </g>
  
</svg>