<?xml version="1.0" encoding="UTF-8"?>
<svg xmlns="http://www.w3.org/2000/svg" viewBox="0 0 140 196" width="140" height="196">
  
    <defs>
      <linearGradient id="cardBg" x1="0%" y1="0%" x2="100%" y2="100%">
        <stop offset="0%" stop-color="#fffef9"/>
        <stop offset="100%" stop-color="#f8f4ea"/>
      </linearGradient>
      <linearGradient id="frameGrad" x1="0%" y1="0%" x2="100%" y2="100%">
        <stop offset="0%" stop-color="#f87171"/>
        <stop offset="100%" stop-color="#dc2626"/>
      </linearGradient>
      <filter id="softShadow" x="-20%" y="-20%" width="140%" height="140%">
        <feDropShadow dx="0" dy="2" stdDeviation="2" flood-opacity="0.15"/>
      </filter>
    </defs>
    <rect x="2" y="2" width="136" height="192" rx="12" fill="url(#frameGrad)" filter="url(#softShadow)"/>
    <rect x="6" y="6" width="128" height="184" rx="10" fill="url(#cardBg)" stroke="#dc2626" stroke-width="1.5" opacity="0.95"/>
    <rect x="10" y="10" width="120" height="176" rx="8" fill="none" stroke="#f87171" stroke-width="0.8" opacity="0.4"/>

    <text x="18" y="30" font-family="Georgia, serif" font-size="20" font-weight="700" fill="#dc2626">8</text>
    <text x="18" y="48" font-family="Georgia, serif" font-size="16" fill="#dc2626">♥</text>

    <text x="122" y="182" font-family="Georgia, serif" font-size="20" font-weight="700" fill="#dc2626" text-anchor="end" transform="rotate(180 122 182)">8</text>
    <text x="122" y="164" font-family="Georgia, serif" font-size="16" fill="#dc2626" text-anchor="end" transform="rotate(180 122 164)">♥</text>
  
  
    <g>
      <path d="M 70 158 C 60 146 60 160 70 166 C 80 160 80 146 70 158 Z" fill="#dc2626" opacity="0.35"/>
      
    <ellipse cx="70" cy="146" rx="22" ry="18" fill="#6366f1"/>
    <ellipse cx="70" cy="142" rx="18" ry="8" fill="rgba(255,255,255,0.15)"/>
  
      <ellipse cx="46" cy="136" rx="7" ry="5" fill="#6366f1" transform="rotate(-20 46 136)"/>
      <ellipse cx="94" cy="136" rx="7" ry="5" fill="#6366f1" transform="rotate(20 94 136)"/>
    
      <ellipse cx="70" cy="112" rx="26" ry="24" fill="#fdba74"/>
      <ellipse cx="70" cy="90" rx="30" ry="26" fill="#0ea5e9"/><path d="M 42 98 L 50 70 L 62 94 L 70 66 L 78 94 L 90 70 L 98 98 Z" fill="#0ea5e9"/>
      
      
    <ellipse cx="52" cy="116" rx="5" ry="3" fill="#fca5a5" opacity="0.55"/>
    <ellipse cx="88" cy="116" rx="5" ry="3" fill="#fca5a5" opacity="0.55"/>
  
      
      <path d="M 54 108 Q 60 100 66 108" stroke="#1e293b" stroke-width="2.2" fill="none" stroke-linecap="round"/>
      <path d="M 74 108 Q 80 100 86 108" stroke="#1e293b" stroke-width="2.2" fill="none" stroke-linecap="round"/>
    
      <path d="M 65 122 Q 70 127 75 122" stroke="#be123c" stroke-width="1.8" fill="none" stroke-linecap="round"/>
    </g>
  
</svg>