<?xml version="1.0" encoding="UTF-8"?>
<svg xmlns="http://www.w3.org/2000/svg" viewBox="0 0 140 196" width="140" height="196">
  
    <defs>
      <linearGradient id="cardBg" x1="0%" y1="0%" x2="100%" y2="100%">
        <stop offset="0%" stop-color="#fffef9"/>
        <stop offset="100%" stop-color="#f8f4ea"/>
      </linearGradient>
      <linearGradient id="frameGrad" x1="0%" y1="0%" x2="100%" y2="100%">
        <stop offset="0%" stop-color="#f472b6"/>
        <stop offset="100%" stop-color="#db2777"/>
      </linearGradient>
      <filter id="softShadow" x="-20%" y="-20%" width="140%" height="140%">
        <feDropShadow dx="0" dy="2" stdDeviation="2" flood-opacity="0.15"/>
      </filter>
    </defs>
    <rect x="2" y="2" width="136" height="192" rx="12" fill="url(#frameGrad)" filter="url(#softShadow)"/>
    <rect x="6" y="6" width="128" height="184" rx="10" fill="url(#cardBg)" stroke="#db2777" stroke-width="1.5" opacity="0.95"/>
    <rect x="10" y="10" width="120" height="176" rx="8" fill="none" stroke="#f472b6" stroke-width="0.8" opacity="0.4"/>

    <text x="18" y="30" font-family="Georgia, serif" font-size="20" font-weight="700" fill="#dc2626">A</text>
    <text x="18" y="48" font-family="Georgia, serif" font-size="16" fill="#dc2626">♦</text>

    <text x="122" y="182" font-family="Georgia, serif" font-size="20" font-weight="700" fill="#dc2626" text-anchor="end" transform="rotate(180 122 182)">A</text>
    <text x="122" y="164" font-family="Georgia, serif" font-size="16" fill="#dc2626" text-anchor="end" transform="rotate(180 122 164)">♦</text>
  
  
    <g>
      <polygon points="70,150 62,162 70,174 78,162" fill="#db2777" opacity="0.35"/>
      
    <ellipse cx="70" cy="146" rx="22" ry="18" fill="#22c55e"/>
    <ellipse cx="70" cy="142" rx="18" ry="8" fill="rgba(255,255,255,0.15)"/>
  
      <ellipse cx="46" cy="136" rx="7" ry="5" fill="#22c55e" transform="rotate(-20 46 136)"/>
      <ellipse cx="94" cy="136" rx="7" ry="5" fill="#22c55e" transform="rotate(20 94 136)"/>
    
      <ellipse cx="70" cy="112" rx="26" ry="24" fill="#fdba74"/>
      <ellipse cx="70" cy="90" rx="30" ry="26" fill="#14b8a6"/><path d="M 40 100 Q 36 128 52 136 L 88 136 Q 104 128 100 100 Z" fill="#14b8a6"/>
      
      <ellipse cx="70" cy="64" rx="14" ry="4" fill="none" stroke="#fbbf24" stroke-width="2"/>
      <path d="M 60 58 Q 70 46 80 58" fill="#fef08a" opacity="0.8"/>
    
      
    <ellipse cx="52" cy="116" rx="5" ry="3" fill="#fca5a5" opacity="0.55"/>
    <ellipse cx="88" cy="116" rx="5" ry="3" fill="#fca5a5" opacity="0.55"/>
  
      
    <ellipse cx="60" cy="106" rx="5.5" ry="7" fill="#1e293b"/>
    <ellipse cx="80" cy="106" rx="5.5" ry="7" fill="#1e293b"/>
    <circle cx="62" cy="104" r="2.2" fill="#fff"/>
    <circle cx="82" cy="104" r="2.2" fill="#fff"/>
    <circle cx="64" cy="107" r="1" fill="#fff" opacity="0.6"/>
    <circle cx="84" cy="107" r="1" fill="#fff" opacity="0.6"/>
  
      <ellipse cx="70" cy="124" rx="4" ry="3" fill="#be123c"/>
    </g>
  
</svg>