<?xml version="1.0" encoding="UTF-8"?>
<svg xmlns="http://www.w3.org/2000/svg" viewBox="0 0 140 196" width="140" height="196">
  
    <defs>
      <clipPath id="artZone">
        <rect x="14" y="52" width="112" height="132" rx="8"/>
      </clipPath>
      <linearGradient id="cardBg" x1="0%" y1="0%" x2="100%" y2="100%">
        <stop offset="0%" stop-color="#ffffff"/>
        <stop offset="100%" stop-color="#fdf4ff"/>
      </linearGradient>
      <linearGradient id="frameGrad" x1="0%" y1="0%" x2="100%" y2="100%">
        <stop offset="0%" stop-color="#f0abfc"/>
        <stop offset="100%" stop-color="#c026d3"/>
      </linearGradient>
      <filter id="softShadow" x="-20%" y="-20%" width="140%" height="140%">
        <feDropShadow dx="0" dy="2" stdDeviation="2.5" flood-opacity="0.18"/>
      </filter>
    </defs>
    <rect x="2" y="2" width="136" height="192" rx="12" fill="url(#frameGrad)" filter="url(#softShadow)"/>
    <rect x="6" y="6" width="128" height="184" rx="10" fill="url(#cardBg)" stroke="#c026d3" stroke-width="2"/>
    <rect x="14" y="52" width="112" height="132" rx="8" fill="#fdf4ff" opacity="0.35" stroke="#f0abfc" stroke-width="1" stroke-dasharray="4 3"/>
  
  
    <g clip-path="url(#artZone)">
      
    <ellipse cx="70" cy="160" rx="14" ry="10" fill="#06d6a0" stroke="#3d2314" stroke-width="2.4" stroke-linejoin="round" stroke-linecap="round"/>
    <ellipse cx="70" cy="154" rx="18" ry="14" fill="#06d6a0" stroke="#3d2314" stroke-width="2.4" stroke-linejoin="round" stroke-linecap="round"/>
    <ellipse cx="70" cy="150" rx="14" ry="6" fill="#fff" opacity="0.2" stroke="#3d2314" stroke-width="2.4" stroke-linejoin="round" stroke-linecap="round"/>
  
      <ellipse cx="48" cy="146" rx="6" ry="4.5" fill="#06d6a0" stroke="#3d2314" stroke-width="2.4" stroke-linejoin="round" stroke-linecap="round"/>
      <ellipse cx="90" cy="136" rx="6" ry="4.5" fill="#06d6a0" stroke="#3d2314" stroke-width="2.4" stroke-linejoin="round" stroke-linecap="round"/>
      <circle cx="96" cy="128" r="7" fill="#ffcba4" stroke="#3d2314" stroke-width="2.4" stroke-linejoin="round" stroke-linecap="round"/>
    
      <ellipse cx="70" cy="120" rx="30" ry="28" fill="#ffcd94" stroke="#3d2314" stroke-width="2.4" stroke-linejoin="round" stroke-linecap="round"/>
      
      <ellipse cx="70" cy="90" rx="34" ry="30" fill="#4cc9f0" stroke="#3d2314" stroke-width="2.4" stroke-linejoin="round" stroke-linecap="round"/>
      <path d="M 38 108 Q 34 140 50 148 L 90 148 Q 106 140 102 108 Z" fill="#4cc9f0" stroke="#3d2314" stroke-width="2.4" stroke-linejoin="round" stroke-linecap="round"/>
      <ellipse cx="60" cy="84" rx="8" ry="12" fill="#4cc9f0" opacity="0.4" stroke="#3d2314" stroke-width="2.4" stroke-linejoin="round" stroke-linecap="round"/>
    
      <polygon points="70,48 62,60 70,72 78,60" fill="#e879f9" stroke="#3d2314" stroke-width="2.4" stroke-linejoin="round" stroke-linecap="round"/>
      <ellipse cx="70" cy="56" rx="16" ry="5" fill="none" stroke="#fbbf24" stroke-width="2.5" stroke="#3d2314" stroke-width="2.4" stroke-linejoin="round" stroke-linecap="round"/>
      <path d="M 58 50 Q 70 36 82 50" fill="#fef08a" opacity="0.85" stroke="#3d2314" stroke-width="2.4" stroke-linejoin="round" stroke-linecap="round"/>
    
      
        <ellipse cx="50" cy="128" rx="7" ry="4" fill="#ffb4b4" opacity="0.65" stroke="#3d2314" stroke-width="2.4" stroke-linejoin="round" stroke-linecap="round"/>
        <ellipse cx="90" cy="128" rx="7" ry="4" fill="#ffb4b4" opacity="0.65" stroke="#3d2314" stroke-width="2.4" stroke-linejoin="round" stroke-linecap="round"/>
      
      
      <path d="M 48 118 Q 58 106 68 118" fill="none" stroke="#3d2314" stroke-width="2.8" stroke-linecap="round" stroke="#3d2314" stroke-width="2.4" stroke-linejoin="round" stroke-linecap="round"/>
      <path d="M 72 118 Q 82 106 92 118" fill="none" stroke="#3d2314" stroke-width="2.8" stroke-linecap="round" stroke="#3d2314" stroke-width="2.4" stroke-linejoin="round" stroke-linecap="round"/>
    
      <ellipse cx="70" cy="132" rx="3" ry="2" fill="#ffb4b4" opacity="0.5" stroke="#3d2314" stroke-width="2.4" stroke-linejoin="round" stroke-linecap="round"/>
      <path d="M 64 136 Q 70 142 76 136" fill="none" stroke="#3d2314" stroke-width="2.2" stroke-linecap="round"/>
    </g>
  
</svg>