<?xml version="1.0" encoding="UTF-8"?>
<svg xmlns="http://www.w3.org/2000/svg" viewBox="0 0 140 196" width="140" height="196">
  <defs>
    <linearGradient id="backBg" x1="0%" y1="0%" x2="100%" y2="100%">
      <stop offset="0%" stop-color="#4f46e5"/>
      <stop offset="50%" stop-color="#6366f1"/>
      <stop offset="100%" stop-color="#312e81"/>
    </linearGradient>
    <pattern id="stars" width="16" height="16" patternUnits="userSpaceOnUse">
      <circle cx="8" cy="8" r="1.5" fill="#c4b5fd" opacity="0.6"/>
    </pattern>
  </defs>
  <rect x="2" y="2" width="136" height="192" rx="12" fill="url(#backBg)"/>
  <rect x="2" y="2" width="136" height="192" rx="12" fill="url(#stars)"/>
  <rect x="10" y="10" width="120" height="176" rx="8" fill="none" stroke="#a78bfa" stroke-width="2.5"/>
  <g transform="translate(70, 100)">
    <ellipse cx="0" cy="8" rx="16" ry="12" fill="#4361ee" stroke="#3d2314" stroke-width="2.4" stroke-linejoin="round" stroke-linecap="round"/>
    <ellipse cx="0" cy="-6" rx="32" ry="30" fill="#ffe0bd" stroke="#3d2314" stroke-width="2.4" stroke-linejoin="round" stroke-linecap="round"/>
    <ellipse cx="0" cy="-28" rx="34" ry="28" fill="#ff6b9d" stroke="#3d2314" stroke-width="2.4" stroke-linejoin="round" stroke-linecap="round"/>
    
      <path d="M -22 -6 Q -12 -18 -2 -6" fill="none" stroke="#3d2314" stroke-width="2.8" stroke-linecap="round" stroke="#3d2314" stroke-width="2.4" stroke-linejoin="round" stroke-linecap="round"/>
      <path d="M 2 -6 Q 12 -18 22 -6" fill="none" stroke="#3d2314" stroke-width="2.8" stroke-linecap="round" stroke="#3d2314" stroke-width="2.4" stroke-linejoin="round" stroke-linecap="round"/>
    
    <path d="M -6 8 Q 0 14 6 8" fill="none" stroke="#3d2314" stroke-width="2.2" stroke-linecap="round"/>
    
      <ellipse cx="-18" cy="4" rx="7" ry="4" fill="#ffb4b4" opacity="0.65" stroke="#3d2314" stroke-width="2.4" stroke-linejoin="round" stroke-linecap="round"/>
      <ellipse cx="18" cy="4" rx="7" ry="4" fill="#ffb4b4" opacity="0.65" stroke="#3d2314" stroke-width="2.4" stroke-linejoin="round" stroke-linecap="round"/>
    
    <text y="52" font-family="Inter, sans-serif" font-size="13" font-weight="700" fill="#e0e7ff" text-anchor="middle">♠ ♥ ♦ ♣</text>
  </g>
</svg>