<?xml version="1.0" encoding="UTF-8"?>
<svg xmlns="http://www.w3.org/2000/svg" viewBox="0 0 140 196" width="140" height="196">
  <defs>
    <linearGradient id="backBg" x1="0%" y1="0%" x2="100%" y2="100%">
      <stop offset="0%" stop-color="#312e81"/>
      <stop offset="50%" stop-color="#4338ca"/>
      <stop offset="100%" stop-color="#1e1b4b"/>
    </linearGradient>
    <pattern id="stars" width="20" height="20" patternUnits="userSpaceOnUse">
      <circle cx="10" cy="10" r="1.2" fill="#c4b5fd" opacity="0.5"/>
    </pattern>
  </defs>
  <rect x="2" y="2" width="136" height="192" rx="12" fill="url(#backBg)"/>
  <rect x="2" y="2" width="136" height="192" rx="12" fill="url(#stars)"/>
  <rect x="10" y="10" width="120" height="176" rx="8" fill="none" stroke="#a78bfa" stroke-width="2" opacity="0.6"/>
  <rect x="16" y="16" width="108" height="164" rx="6" fill="none" stroke="#818cf8" stroke-width="1" opacity="0.4"/>
  <g transform="translate(70, 98)">
    <ellipse cx="0" cy="0" rx="28" ry="26" fill="#fcd34d"/>
    <ellipse cx="0" cy="-18" rx="28" ry="24" fill="#6366f1"/>
    <ellipse cx="-10" cy="-4" rx="5.5" ry="7" fill="#1e293b"/>
    <ellipse cx="10" cy="-4" rx="5.5" ry="7" fill="#1e293b"/>
    <circle cx="-8" cy="-6" r="2" fill="#fff"/>
    <circle cx="12" cy="-6" r="2" fill="#fff"/>
    <path d="M -5 10 Q 0 15 5 10" stroke="#be123c" stroke-width="1.8" fill="none"/>
    <ellipse cx="-16" cy="6" rx="5" ry="3" fill="#fca5a5" opacity="0.55"/>
    <ellipse cx="16" cy="6" rx="5" ry="3" fill="#fca5a5" opacity="0.55"/>
    <text y="42" font-family="Georgia, serif" font-size="14" font-weight="700" fill="#e0e7ff" text-anchor="middle">♠ ♥ ♦ ♣</text>
  </g>
</svg>