<?xml version="1.0" encoding="UTF-8"?>
<svg xmlns="http://www.w3.org/2000/svg" viewBox="0 0 140 180" width="140" height="180">
  <defs>
    <linearGradient id="bg14" x1="0" y1="0" x2="0" y2="1">
      <stop offset="0%" stop-color="#2a1210"/>
      <stop offset="100%" stop-color="#120808"/>
    </linearGradient>
  </defs>
  <rect width="140" height="180" fill="url(#bg14)"/>
  <ellipse cx="70" cy="130" rx="38" ry="28" fill="#7c3aed" stroke="#3d2314" stroke-width="2"/>
  <ellipse cx="70" cy="72" rx="34" ry="32" fill="#ffe0bd" stroke="#3d2314" stroke-width="2"/>
  <ellipse cx="70" cy="38" rx="36" ry="30" fill="#ff6b9d" stroke="#3d2314" stroke-width="2"/>
  <path d="M40 48 Q70 20 100 48" fill="#ff6b9d" stroke="#3d2314" stroke-width="2"/>
  <path d="M55 95 Q75 70 90 55" stroke="#3d2314" stroke-width="3" fill="none" stroke-linecap="round"/><circle cx="92" cy="52" r="8" fill="#ffe0bd"/>
  <ellipse cx="58" cy="70" rx="5" ry="7" fill="#fff" stroke="#3d2314" stroke-width="1.5"/>
  <ellipse cx="82" cy="70" rx="5" ry="7" fill="#fff" stroke="#3d2314" stroke-width="1.5"/>
  <circle cx="59" cy="72" r="3" fill="#1a1a2e"/>
  <circle cx="83" cy="72" r="3" fill="#1a1a2e"/>
  <circle cx="60" cy="70" r="1" fill="#fff"/>
  <circle cx="84" cy="70" r="1" fill="#fff"/>
  <ellipse cx="52" cy="82" rx="6" ry="3" fill="#ffb4b4" opacity="0.7"/>
  <ellipse cx="88" cy="82" rx="6" ry="3" fill="#ffb4b4" opacity="0.7"/>
  <path d="M64 88 Q70 94 76 88" fill="none" stroke="#3d2314" stroke-width="2" stroke-linecap="round"/>
  <text x="70" y="168" text-anchor="middle" font-family="Inter,sans-serif" font-size="10" fill="#ff6b9d" opacity="0.6">#28</text>
</svg>